<svg width="241" height="51" viewBox="0 0 241 51" fill="none" xmlns="http://www.w3.org/2000/svg">
<path d="M13.6558 21.8776C10.405 17.7442 7.5856 11.6666 10.8718 6.73234C11.284 6.11353 11.7777 5.54805 12.3409 5.06059C13.9101 3.70245 15.943 2.96451 17.9954 2.62527C22.7721 1.83569 27.7876 3.12521 31.8216 5.78769C30.7373 5.29435 29.5243 5.11299 28.3618 4.88409C27.0962 4.63494 25.8132 4.46872 24.5242 4.40885C19.9444 4.1961 15.5584 5.53746 13.1622 9.68426C11.0351 13.3653 11.0449 17.982 13.4238 21.5483C13.4981 21.6598 13.5729 21.7721 13.6558 21.8776Z" fill="url(#paint0_linear)"/>
<path d="M30.7512 6.59676C27.7836 5.14654 24.572 4.50631 21.3057 5.26813C17.4282 6.17249 14.4334 8.83308 13.632 12.8132C13.1443 15.2358 13.5642 17.7508 14.4742 20.025C14.5483 20.2103 15.9337 23.2107 16.111 23.1177C16.1114 23.1175 17.5596 22.3577 17.5596 22.3577C17.5432 22.3663 17.5131 22.3317 17.4725 22.2631L18.7295 21.8098L18.5358 21.2789L17.2277 21.7508C16.9144 21.0257 16.4602 19.8134 16.1792 19.0266H17.6804V18.462H15.9829C15.9578 18.3862 15.9399 18.3295 15.9312 18.297C15.702 17.4438 15.5619 16.5302 15.522 15.6011L17.1613 15.7323L17.2069 15.1696L15.5105 15.0338C15.5121 13.9862 15.6429 12.9308 15.9198 11.9312L17.2772 12.6595L17.547 12.1625L16.0896 11.3807C16.4209 10.4046 16.9005 9.49586 17.5454 8.71824L18.7581 10.0411L19.1779 9.6608L17.926 8.2951C18.604 7.59883 19.4367 7.03427 20.4377 6.65678L21.3146 8.45258L21.8256 8.20604L20.9799 6.4741C21.9384 6.18487 22.9631 6.04953 24.0089 6.02918V7.35014H24.5769V6.02887C25.4927 6.0461 26.4177 6.14463 27.3219 6.29898V7.07768H27.8899V6.4038C28.7604 6.5758 29.2031 6.69303 29.9936 6.93595L30.7512 6.59676Z" fill="#8E8E8E"/>
<path d="M56.9172 26.3673V14.3809H62.114C62.7026 14.3809 63.2461 14.5019 63.7444 14.7438C64.2424 14.986 64.6699 15.301 65.0266 15.6892C65.3832 16.0775 65.6634 16.5223 65.8673 17.0229C66.071 17.5238 66.1729 18.0275 66.1729 18.5339C66.1729 19.0631 66.0766 19.578 65.8842 20.0786C65.6916 20.5796 65.4228 21.0241 65.0775 21.4123C64.7321 21.8007 64.3133 22.1103 63.8208 22.3409C63.3283 22.5717 62.7875 22.687 62.199 22.687H60.2289V26.3674H56.9172V26.3673ZM60.2289 19.817H61.9781C62.182 19.817 62.3714 19.7241 62.5471 19.5384C62.7225 19.3527 62.8103 19.018 62.8103 18.5339C62.8103 18.0388 62.7084 17.7011 62.5046 17.5209C62.3008 17.341 62.097 17.2508 61.8932 17.2508H60.2288V19.817H60.2289Z" fill="black"/>
<path d="M77.6571 23.4973V26.3673H69.0637V14.3809H77.5043V17.2509H72.3754V18.9391H76.757V21.6065H72.3754V23.4973H77.6571Z" fill="black"/>
<path d="M90.0708 26.3673V20.0533L88.0498 24.4934H86.2836L84.2626 20.0533V26.3673H80.9509V14.3809H84.5683L87.1667 20.0195L89.7821 14.3809H93.3825V26.3673H90.0708Z" fill="black"/>
<path d="M101.958 25.8946C101.041 25.8946 100.209 25.7202 99.4612 25.3713C98.714 25.0226 98.0742 24.5638 97.5422 23.9954C97.0099 23.4272 96.5967 22.7772 96.3024 22.0455C96.0078 21.314 95.8608 20.5598 95.8608 19.7832C95.8608 18.9956 96.0137 18.2359 96.3194 17.5041C96.625 16.7727 97.0523 16.1282 97.6016 15.5711C98.1506 15.014 98.8015 14.5695 99.5546 14.2374C100.307 13.9056 101.131 13.7394 102.026 13.7394C102.943 13.7394 103.775 13.914 104.522 14.2627C105.269 14.6117 105.909 15.0731 106.441 15.6471C106.973 16.2211 107.384 16.874 107.673 17.6054C107.961 18.3372 108.106 19.0855 108.106 19.8508C108.106 20.6387 107.953 21.3955 107.647 22.1215C107.341 22.8474 106.917 23.4889 106.373 24.046C105.83 24.6032 105.182 25.0506 104.429 25.3882C103.676 25.7258 102.852 25.8946 101.958 25.8946ZM99.2235 19.8169C99.2235 20.2221 99.28 20.6134 99.3934 20.9903C99.5064 21.3675 99.6762 21.7023 99.9029 21.9947C100.129 22.2875 100.415 22.5239 100.761 22.7038C101.106 22.8839 101.516 22.9739 101.992 22.9739C102.467 22.9739 102.881 22.881 103.232 22.6953C103.582 22.5096 103.868 22.2677 104.089 21.9693C104.31 21.6713 104.474 21.3307 104.582 20.9479C104.689 20.5655 104.743 20.1772 104.743 19.7831C104.743 19.3779 104.686 18.987 104.573 18.6098C104.46 18.2329 104.287 17.9008 104.055 17.6137C103.823 17.3268 103.534 17.0962 103.189 16.9216C102.844 16.7472 102.439 16.6599 101.975 16.6599C101.499 16.6599 101.089 16.7501 100.744 16.93C100.398 17.1102 100.112 17.3495 99.8859 17.6475C99.6593 17.9458 99.4924 18.2835 99.3849 18.6604C99.2771 19.0377 99.2235 19.4231 99.2235 19.8169Z" fill="black"/>
<path d="M121.539 13.8238V25.8102H118.227V21.117H114.185V25.8102H110.873V13.8238H114.185V18.2469H118.227V13.8238H121.539Z" fill="black"/>
<path d="M134.763 16.823H131.299V25.9394H127.987V16.823H124.506V13.9529H134.763V16.823H134.763Z" fill="black"/>
<path d="M152.18 16.9576H148.865V25.681H145.696V16.9576H142.365V14.2113H152.18V16.9576Z" fill="#FFAF26"/>
<path d="M156.189 25.9394C156.06 25.9394 155.909 25.9286 155.738 25.9073C155.566 25.8859 155.384 25.8486 155.191 25.7954C154.998 25.7421 154.81 25.6754 154.628 25.5954C154.445 25.5154 154.284 25.417 154.145 25.2994L154.805 22.756C154.815 22.7774 154.853 22.8147 154.917 22.8679C154.982 22.9214 155.062 22.9747 155.159 23.0279C155.255 23.0814 155.362 23.1294 155.481 23.1719C155.598 23.2147 155.727 23.2359 155.867 23.2359C156.103 23.2359 156.301 23.1774 156.462 23.0599C156.623 22.9427 156.725 22.7775 156.768 22.564L152.536 14.4696H155.995L158.168 19.5406L160.163 14.4696H163.462L159.439 23.1079C159.203 23.6198 158.975 24.0545 158.755 24.4117C158.535 24.7691 158.299 25.0595 158.047 25.2835C157.795 25.5075 157.521 25.6729 157.226 25.7794C156.931 25.8859 156.585 25.9394 156.189 25.9394Z" fill="#FFAF26"/>
<path d="M164.481 25.9394V14.4696H169.454C170.017 14.4696 170.537 14.5854 171.014 14.817C171.49 15.0487 171.9 15.3501 172.241 15.7216C172.582 16.0932 172.85 16.5188 173.045 16.9978C173.24 17.4771 173.338 17.959 173.338 18.4437C173.338 18.95 173.246 19.4427 173.061 19.9218C172.877 20.4011 172.62 20.8265 172.29 21.198C171.959 21.5696 171.558 21.8659 171.087 22.0865C170.616 22.3074 170.098 22.4177 169.535 22.4177H167.65V25.9394H164.481ZM167.65 19.6714H169.324C169.519 19.6714 169.7 19.5826 169.868 19.4049C170.036 19.2272 170.12 18.9069 170.12 18.4437C170.12 17.9699 170.022 17.6468 169.827 17.4744C169.633 17.3022 169.437 17.2159 169.242 17.2159H167.65V19.6714Z" fill="#FFAF26"/>
<path d="M174.832 14.4768H183.645V17.2197H177.997V18.9138H180.367C181.752 18.9138 182.796 19.2178 183.499 19.8254C184.203 20.4332 184.554 21.275 184.554 22.3505C184.554 23.4693 184.219 24.3458 183.548 24.9804C182.877 25.6152 181.871 25.9323 180.529 25.9323H174.832V14.4768H174.832ZM180.075 23.2861C180.486 23.2861 180.797 23.2002 181.008 23.028C181.219 22.8561 181.324 22.6193 181.324 22.3181C181.324 22.0599 181.219 21.8369 181.008 21.6485C180.797 21.4605 180.486 21.3662 180.075 21.3662H177.997V23.2861H180.075Z" fill="#FFAF26"/>
<path d="M189.48 21.0284L194.388 14.4696H196.696V25.9394H193.527V19.5745L188.668 25.9394H186.312V14.4696H189.48V21.0284Z" fill="#FFAF26"/>
<path d="M209.186 14.4696V25.9394H206.017V21.4484H202.149V25.9394H198.98V14.4696H202.149V18.7021H206.017V14.4696H209.186Z" fill="#FFAF26"/>
<path d="M227.231 22.668V25.9841H215.264V23.365L221.017 18.1903C221.573 17.6834 221.946 17.2504 222.137 16.8913C222.327 16.5322 222.422 16.1699 222.422 15.8036C222.422 15.325 222.254 14.9517 221.917 14.6841C221.58 14.4168 221.09 14.2828 220.446 14.2828C219.875 14.2828 219.352 14.4062 218.876 14.6524C218.4 14.8989 218.009 15.2544 217.701 15.719L214.474 13.987C215.074 13.0297 215.915 12.2762 216.999 11.7271C218.082 11.1779 219.363 10.9033 220.841 10.9033C222.012 10.9033 223.048 11.0865 223.948 11.4525C224.849 11.8188 225.551 12.3432 226.056 13.026C226.561 13.7092 226.814 14.5013 226.814 15.4022C226.814 16.2048 226.634 16.9619 226.276 17.6728C225.917 18.384 225.225 19.1902 224.201 20.0912L221.302 22.668H227.231Z" fill="black"/>
<path d="M238.556 22.9849C238.663 22.9849 240.26 22.9849 240.26 22.9849V19.3155H238.663V16.8104H236.001H234.084V19.3155H232.451L235.752 11.5179H231.245L227.908 19.3508V23.0202H234.226C234.226 23.0202 234.191 25.984 234.226 25.984C234.262 25.984 238.556 25.984 238.556 25.984V22.9849H238.556Z" fill="black"/>
<path d="M51.3165 5.67307C51.3165 5.67307 50.9126 4.15429 50.2745 3.73534C49.6365 3.3164 49.0804 3.82845 49.0804 3.82845H45.7672C45.2696 3.92156 45.1116 4.56164 45.1116 4.56164L34.5202 5.39181C33.9665 5.43236 33.4135 5.48333 32.8618 5.5451C32.5687 5.57787 32.2788 5.6086 31.9893 5.67021C31.6922 5.7334 31.3993 5.81639 31.1133 5.91844C30.9501 5.97668 30.7907 6.04309 30.6314 6.1114C30.4832 6.175 30.3234 6.22271 30.1728 6.28508C30.0514 6.3357 29.9021 6.37814 29.7925 6.45074C29.3577 6.64892 28.9328 6.86872 28.5205 7.10979C28.1348 7.33527 27.7601 7.57925 27.3982 7.84093C27.0597 8.08568 26.7325 8.34588 26.4179 8.62039C26.1247 8.87634 25.8423 9.14466 25.5719 9.42439C25.3217 9.6832 25.0816 9.95178 24.8524 10.2292C24.643 10.4826 24.4425 10.7434 24.2516 11.011C24.0805 11.2507 23.9171 11.4959 23.7618 11.746C23.6266 11.9637 23.4975 12.1853 23.3752 12.4105C23.2733 12.5981 23.1761 12.7881 23.0841 12.9807C23.0129 13.1298 22.9448 13.2805 22.8807 13.4328C22.8375 13.5354 22.796 13.6388 22.7573 13.7431C22.7394 13.7911 22.722 13.8392 22.706 13.8878C22.7052 13.8903 22.7043 13.8929 22.7035 13.8954C22.7035 13.8954 19.3786 21.7162 24.1084 28.3731C28.8383 35.03 35.6753 33.1214 35.6753 33.1214C35.6753 33.1214 41.7632 31.9111 44.9008 25.3007C48.0384 18.6903 45.3691 13.5929 45.3691 13.5929L49.2716 13.5618C49.4979 13.748 49.8882 13.7325 49.8882 13.7325C49.8882 13.7325 50.7077 14.0119 51.4804 11.3584C52.2531 8.7048 51.3165 5.67307 51.3165 5.67307ZM38.2862 15.4665L38.7135 16.252H37.2618L36.9515 15.4665H38.2862ZM36.811 15.1813L36.4949 14.5936L37.7125 14.6344C37.7125 14.6344 38.0871 15.1755 38.0871 15.1813C38.0871 15.1872 36.811 15.1813 36.811 15.1813ZM38.9301 17.8057C38.9301 17.8057 38.9389 17.9243 38.9399 18.1354C39.1105 26.4839 32.6081 27.2412 32.6081 27.2412C38.5895 25.3006 38.9466 19.5719 38.9399 18.1354C38.9376 18.0267 38.9346 17.917 38.9301 17.8057ZM37.6422 24.7187C40.5456 21.1109 39.1642 17.2238 39.1642 17.2238C37.9232 12.8479 33.7788 12.01 33.7788 12.01L33.1465 11.6143C36.7759 11.8703 38.3914 14.4074 38.3914 14.4074C41.5759 18.4807 39.2812 23.0428 39.2812 23.0428C36.2607 29.1411 31.0158 27.6514 31.0158 27.6514C36.0032 27.4419 37.6422 24.7187 37.6422 24.7187ZM37.2308 21.3101C36.0649 25.6076 32.0175 28.2597 28.1907 27.2338C24.3638 26.2079 22.2067 21.8924 23.3726 17.5949C24.5385 13.2974 28.5859 10.6453 32.4127 11.6712C36.2395 12.6971 38.3966 17.0126 37.2308 21.3101ZM26.9443 28.2229C38.1126 33.4947 41.402 24.1033 41.402 24.1033C43.3919 19.2156 41.0764 13.2436 41.0764 13.2436C42.4813 13.1971 42.7485 13.6296 42.7485 13.6296C44.8909 19.7393 41.9759 25.3951 41.9759 25.3951C36.0405 34.542 26.8491 28.178 26.9443 28.2229ZM37.9115 11.9052C38.0169 11.9052 44.3037 11.3932 44.3037 11.3932C44.3037 11.3932 44.2635 12.3125 44.8924 13.0108C44.8924 13.0108 44.4325 12.6267 44.093 12.0798L37.9115 11.9052ZM26.6841 9.25178C27.0315 8.87905 27.4207 8.546 27.8323 8.24515C28.2424 7.94539 28.6755 7.67711 29.1217 7.43364C29.5428 7.20382 29.9761 6.99603 30.4171 6.80665C30.7123 6.6799 31.011 6.56149 31.3126 6.45069C31.5885 6.34935 31.8663 6.24122 32.1487 6.15373C32.4469 6.06134 32.7509 5.98721 33.0582 5.93173C33.3654 5.87631 33.6731 5.85223 33.9827 5.82257C34.0753 5.81368 34.168 5.80483 34.2607 5.79594C34.5198 5.77109 34.779 5.74624 35.0382 5.72144C35.3408 5.69245 35.6434 5.66346 35.9461 5.63442C36.2806 5.60236 36.6151 5.5703 36.9496 5.53825C37.3044 5.50425 37.6592 5.47025 38.014 5.43624C38.3776 5.40143 38.7411 5.36656 39.1047 5.33174C39.4654 5.29717 39.8261 5.26261 40.1868 5.22805C40.5331 5.19487 40.8793 5.16168 41.2256 5.1285C41.5459 5.09782 41.8662 5.06709 42.1865 5.03642C42.4693 5.00932 42.752 4.98222 43.0347 4.95512C43.2683 4.93273 43.5019 4.91033 43.7356 4.88794C43.9085 4.87137 44.0813 4.85481 44.2543 4.83824C44.3549 4.82858 44.4555 4.81897 44.5561 4.8093C44.5774 4.80726 44.5986 4.80521 44.6198 4.80322C44.3037 5.56841 44.3037 8.04151 44.3037 8.04151L38.0519 8.40227C36.167 8.54191 34.1088 8.7204 34.1088 8.7204C28.2437 9.53672 26.4967 11.5678 26.4967 11.5678C28.4636 8.4488 34.2471 7.6109 34.2471 7.6109L43.5193 6.77295L43.7066 5.70227C43.7066 5.70227 37.689 6.23764 33.8724 6.70311C32.8746 6.82485 31.8765 7.01152 30.9228 7.33333C30.6368 7.42981 30.3521 7.53216 30.0786 7.66014C29.8334 7.77487 29.62 7.93076 29.3837 8.06247C28.898 8.3331 28.4307 8.63644 27.9859 8.96939C27.1763 9.57532 26.4409 10.2792 25.8031 11.0621C23.733 13.6029 22.7577 16.865 22.3035 20.1033C22.3205 19.982 22.2946 19.84 22.293 19.717C22.2912 19.5829 22.2914 19.4487 22.2935 19.3146C22.2978 19.0464 22.3099 18.7783 22.3296 18.5108C22.3691 17.9758 22.4391 17.4431 22.5386 16.9159C22.7377 15.8609 23.0543 14.828 23.4795 13.8414C23.9046 12.8551 24.4383 11.9148 25.0716 11.0457C25.5423 10.3996 26.0615 9.75913 26.6841 9.25178ZM22.2197 22.4919C25.4481 32.3917 33.2259 32.0666 35.0999 31.8348C35.2359 31.8154 35.3727 31.7946 35.5115 31.7713C35.5115 31.7713 35.3644 31.8021 35.0999 31.8348C24.1087 33.4077 22.2197 22.4919 22.2197 22.4919ZM44.292 24.6023C41.0139 32.842 33.2403 32.7023 33.2403 32.7023C40.063 31.8401 42.6783 26.8963 42.6783 26.8963C47.1386 19.7393 44.1047 13.616 44.1047 13.616H44.7604C46.7506 19.9006 44.292 24.6023 44.292 24.6023ZM47.6091 9.42633L45.4627 9.46514V9.12375L47.6091 9.03842V9.42633ZM47.6091 8.85993L45.4627 8.92977L45.494 7.8125L47.6091 7.75043V8.85993ZM47.9857 4.93989C47.9857 4.93989 46.0657 5.06791 46.0482 5.06791C46.0306 5.06791 46.253 4.6664 46.253 4.6664L48.1613 4.53837L47.9857 4.93989ZM46.2355 4.422C46.2355 4.422 44.8462 6.0048 45.494 12.7781C45.494 12.7781 44.573 9.47286 45.0101 6.55561C45.0101 6.55561 45.1896 4.45299 45.8687 4.02627L48.5184 4.0573C48.5184 4.05735 48.7018 4.23579 46.2355 4.422ZM49.8413 13.0574C49.1107 13.0574 48.5184 11.1156 48.5184 8.72029C48.5184 6.32496 49.1107 4.3832 49.8413 4.3832C50.572 4.3832 51.1643 6.32496 51.1643 8.72029C51.1643 11.1156 50.572 13.0574 49.8413 13.0574Z" fill="black"/>
<path d="M48.7524 8.7203C48.7524 9.98461 48.9185 11.1137 49.1786 11.8571C49.0955 11.2987 49.0484 10.6645 49.0484 9.99192C49.0484 7.75299 49.569 5.93803 50.2111 5.93803C50.4906 5.93803 50.747 6.28202 50.9476 6.85512C50.754 5.55482 50.3643 4.66635 49.915 4.66635C49.273 4.6664 48.7524 6.48137 48.7524 8.7203Z" fill="black"/>
<path d="M24.1726 17.8093C23.1281 21.6594 25.0431 25.521 28.4499 26.4343C31.8567 27.3477 35.4652 24.9669 36.5097 21.1168C37.5542 17.2666 35.6393 13.4051 32.2324 12.4917C28.8256 11.5783 25.2171 13.9591 24.1726 17.8093ZM24.1496 19.3826L26.5496 19.5688C26.5145 20.2555 26.5964 21.5706 26.5964 21.5706L24.2784 21.3494C24.0852 20.7094 24.1496 19.3826 24.1496 19.3826ZM24.4248 22.2049L24.3253 21.6753L26.6316 21.8325C26.6316 21.9721 26.7721 22.3853 26.7838 22.4027C26.7955 22.4201 24.4248 22.2049 24.4248 22.2049ZM35.1449 14.8888L35.8942 16.0057L34.0834 18.8609L36.3157 17.185C36.4405 17.4953 36.4952 18.4726 36.4952 18.4726L34.4424 19.6056L36.4952 19.4524L36.3469 20.6298L34.3332 20.4766L36.1439 21.4367L35.7068 22.5234L33.9429 21.1729L35.2394 23.454L34.3956 24.4316L33.3341 21.6753L33.4586 25.3161C33.0835 25.6575 32.1946 25.7971 32.1946 25.7971L32.6083 21.5706C32.6083 21.5706 30.8053 25.6574 30.7585 25.6574C30.7117 25.6574 29.697 25.0988 29.5878 25.0833C29.4785 25.0678 32.0229 21.1419 32.0229 21.1419L28.8658 23.6092L28.1673 22.4037L31.7263 20.4766L28.1829 20.8005L28.0424 19.3826L31.7419 19.6367L28.7448 17.9453L29.1507 16.5643L32.1166 18.8764L30.3019 15.6022L31.2424 14.5936L32.741 18.4727L32.6083 14.3764L33.8805 14.0039L33.4587 18.4727L35.1449 14.8888ZM33.3966 13.2401C31.9292 12.9262 27.2463 14.5626 27.1058 19.9005C26.9653 25.2384 30.7897 26.3402 30.7897 26.3402C25.5136 25.0057 26.9438 18.1936 26.9438 18.1936C28.9828 12.1263 33.3966 13.2401 33.3966 13.2401Z" fill="black"/>
<path d="M35.0999 31.8349C35.3643 31.8022 35.5114 31.7713 35.5114 31.7713C35.3727 31.7946 35.2358 31.8154 35.0999 31.8349Z" fill="black"/>
<path d="M38.9399 18.1355C38.9389 17.9243 38.9302 17.8057 38.9302 17.8057C38.9347 17.917 38.9377 18.0267 38.9399 18.1355Z" fill="black"/>
<path d="M32.22 19.8434C32.0974 20.3489 32.3638 20.8465 32.8153 20.9548C33.2667 21.0631 33.7321 20.741 33.8548 20.2355C33.9775 19.73 33.711 19.2325 33.2596 19.1242C32.8081 19.0159 32.3427 19.3379 32.22 19.8434ZM33.7136 20.2016C33.6121 20.6198 33.2271 20.8862 32.8536 20.7966C32.4801 20.707 32.2597 20.2955 32.3612 19.8773C32.4627 19.4591 32.8477 19.1927 33.2211 19.2823C33.5946 19.3718 33.8151 19.7835 33.7136 20.2016Z" fill="black"/>
<path d="M33.5448 19.9147C33.484 19.7691 33.3655 19.6571 33.2112 19.6201C32.9378 19.5545 32.6559 19.7495 32.5816 20.0557C32.5623 20.1354 32.559 20.2148 32.5695 20.2898C32.5225 20.1773 32.5101 20.0447 32.5425 19.9113C32.6168 19.6051 32.8987 19.4101 33.1721 19.4756C33.3743 19.5242 33.5151 19.7017 33.5448 19.9147Z" fill="black"/>
<path d="M32.542 19.9113C32.5096 20.0448 32.5221 20.1773 32.569 20.2898C32.5585 20.2148 32.5618 20.1355 32.5811 20.0558C32.6554 19.7496 32.9373 19.5545 33.2107 19.6201C33.3649 19.6572 33.4835 19.7692 33.5442 19.9148C33.5146 19.7017 33.3738 19.5242 33.1716 19.4758C32.8982 19.4101 32.6163 19.6052 32.542 19.9113Z" fill="black"/>
<path d="M16.6419 1.3121C16.6419 1.3121 -1.82953 1.91215 4.3276 18.4739C10.4847 35.0356 29.4391 38.2759 29.4391 38.2759C29.4391 38.2759 42.2362 40.7962 47.0654 31.4353C46.4042 32.7168 44.8724 33.8434 43.7016 34.5974C40.0699 36.9361 35.644 36.6718 31.6062 35.7109C27.8201 34.8099 24.2081 33.2371 20.9578 31.1087C17.4619 28.8194 14.3839 25.8923 11.9634 22.4946C10.0365 19.7896 8.25785 16.8096 7.57296 13.5267C7.04957 11.018 7.30396 8.38505 8.79482 6.23739C10.6017 3.63447 13.6835 2.19719 16.6419 1.3121Z" fill="black"/>
<path d="M57.062 30.6693C57.4263 30.6089 57.9033 30.5572 58.5104 30.5572C59.2563 30.5572 59.8027 30.7296 60.1496 31.0399C60.4705 31.3158 60.6613 31.7383 60.6613 32.2556C60.6613 32.7815 60.5052 33.1953 60.2103 33.4971C59.8113 33.9196 59.1609 34.1351 58.4237 34.1351C58.1982 34.1351 57.99 34.1265 57.8165 34.0834V36.4112H57.062V30.6693ZM57.8165 33.4713C57.9813 33.5144 58.1895 33.5317 58.441 33.5317C59.3517 33.5317 59.9068 33.0919 59.9068 32.2902C59.9068 31.5228 59.3603 31.1521 58.5277 31.1521C58.1981 31.1521 57.9466 31.1779 57.8165 31.2125V33.4713Z" fill="black"/>
<path d="M61.8323 34.4627C61.8496 35.4887 62.5088 35.9112 63.272 35.9112C63.8184 35.9112 64.148 35.8164 64.4342 35.6956L64.5643 36.2388C64.2954 36.3595 63.8357 36.4975 63.168 36.4975C61.8757 36.4975 61.1038 35.6526 61.1038 34.3938C61.1038 33.135 61.8497 32.1435 63.0725 32.1435C64.4429 32.1435 64.8072 33.3419 64.8072 34.1092C64.8072 34.2644 64.7898 34.3851 64.7811 34.4627H61.8323V34.4627ZM64.0699 33.9196C64.0785 33.4368 63.8704 32.6867 63.0118 32.6867C62.2399 32.6867 61.9016 33.3937 61.8409 33.9196H64.0699Z" fill="black"/>
<path d="M65.7956 32.2384H66.7322L67.4954 34.3421C67.5995 34.6524 67.7817 35.1612 67.877 35.4888H67.8944C67.9898 35.1784 68.2239 34.5145 68.3887 34.0576L69.0652 32.2385H70.0105L70.3054 36.4113H69.5768L69.4814 34.4197C69.4554 33.9714 69.4207 33.4368 69.4034 32.9282H69.3773C69.2646 33.3075 69.1519 33.6437 68.9177 34.2818L68.1111 36.3855H67.556L66.8101 34.3249C66.6801 33.9283 66.4979 33.3247 66.3938 32.9368H66.3591C66.3418 33.4283 66.3158 33.9801 66.2897 34.437L66.1857 36.4113H65.4832L65.7956 32.2384Z" fill="black"/>
<path d="M75.0936 34.2903C75.0936 35.8336 74.0181 36.5061 73.0033 36.5061C71.8672 36.5061 70.9912 35.6784 70.9912 34.3593C70.9912 32.9626 71.9105 32.1436 73.0727 32.1436C74.2783 32.1435 75.0936 33.0143 75.0936 34.2903ZM71.7631 34.3334C71.7631 35.2473 72.2922 35.937 73.0381 35.937C73.7666 35.937 74.313 35.2559 74.313 34.3162C74.313 33.6092 73.9574 32.7126 73.0554 32.7126C72.1534 32.7126 71.7631 33.5402 71.7631 34.3334Z" fill="black"/>
<path d="M76.7934 32.2384V33.9196H78.7882V32.2384H79.5427V36.4112H78.7882V34.5231H76.7934V36.4112H76.0388V32.2384H76.7934Z" fill="black"/>
<path d="M83.6018 32.2384V32.8419H82.2922V36.4113H81.5376V32.8419H80.228V32.2384H83.6018Z" fill="black"/>
<path d="M86.871 32.2384V33.9972C86.871 34.661 86.8623 35.0749 86.8276 35.6698L86.8537 35.6784C87.1052 35.1697 87.2526 34.8765 87.5302 34.3938L88.8398 32.2384H89.7331V36.4112H89.0046V34.6438C89.0046 33.9627 89.0219 33.6093 89.0566 32.9367H89.0306C88.7617 33.4713 88.5796 33.8075 88.3367 34.23C87.9378 34.8765 87.4781 35.6784 87.0271 36.4112H86.1511V32.2384H86.871Z" fill="black"/>
<path d="M96.2641 32.2384V36.4112H95.5009V32.8419H93.5495V36.4112H92.7949V32.2384H96.2641Z" fill="black"/>
<path d="M97.5044 33.6006C97.5044 33.066 97.4871 32.635 97.4697 32.2384H98.1549L98.1895 32.954H98.2069C98.5191 32.4453 99.0134 32.1435 99.6986 32.1435C100.713 32.1435 101.477 32.997 101.477 34.2644C101.477 35.7646 100.557 36.506 99.5685 36.506C99.0134 36.506 98.5277 36.2646 98.2762 35.8508H98.2589V38.1183H97.5043V33.6006H97.5044ZM98.2589 34.7128C98.2589 34.8248 98.2763 34.9283 98.2936 35.0231C98.4324 35.549 98.892 35.9111 99.4384 35.9111C100.245 35.9111 100.713 35.2559 100.713 34.2989C100.713 33.4626 100.271 32.747 99.4645 32.747C98.9441 32.747 98.4584 33.1177 98.311 33.6868C98.2849 33.7816 98.2589 33.8937 98.2589 33.9971V34.7128Z" fill="black"/>
<path d="M106.238 34.2903C106.238 35.8336 105.163 36.5061 104.148 36.5061C103.012 36.5061 102.136 35.6784 102.136 34.3593C102.136 32.9626 103.055 32.1436 104.217 32.1436C105.423 32.1435 106.238 33.0143 106.238 34.2903ZM102.908 34.3334C102.908 35.2473 103.437 35.937 104.183 35.937C104.911 35.937 105.457 35.2559 105.457 34.3162C105.457 33.6092 105.102 32.7126 104.2 32.7126C103.298 32.7126 102.908 33.5402 102.908 34.3334Z" fill="black"/>
<path d="M110.393 32.2384V35.8422L110.826 35.8508L110.783 37.7389H110.185L110.15 36.4112H107.244L107.21 37.7389H106.611L106.577 35.8508L106.932 35.8422C107.114 35.5749 107.253 35.2904 107.349 34.9887C107.513 34.4714 107.591 33.911 107.591 33.3247V32.2384H110.393ZM108.268 33.5058C108.268 34.0576 108.19 34.5921 108.051 35.0577C107.964 35.3422 107.843 35.6008 107.713 35.8336H109.647V32.8161H108.268V33.5058Z" fill="black"/>
<path d="M114.061 36.4112L114.001 35.8853H113.975C113.741 36.2129 113.29 36.5061 112.691 36.5061C111.841 36.5061 111.407 35.9112 111.407 35.3077C111.407 34.299 112.309 33.7472 113.931 33.7558V33.6695C113.931 33.3247 113.836 32.7039 112.977 32.7039C112.587 32.7039 112.179 32.8246 111.884 33.0143L111.711 32.5142C112.058 32.2901 112.561 32.1435 113.09 32.1435C114.374 32.1435 114.686 33.0143 114.686 33.8506V35.4111C114.686 35.7732 114.703 36.1267 114.755 36.4112H114.061ZM113.949 34.2817C113.116 34.2645 112.171 34.411 112.171 35.2214C112.171 35.7129 112.5 35.9457 112.891 35.9457C113.437 35.9457 113.784 35.6008 113.905 35.2473C113.931 35.1697 113.949 35.0836 113.949 35.0059V34.2817Z" fill="black"/>
<path d="M116.273 32.2384L117.661 34.0576H117.817V32.2384H118.545V34.0576H118.693L120.08 32.2384H120.956L119.3 34.1352C119.933 34.2042 120.306 34.5749 120.557 35.2387C120.705 35.6439 120.844 36.0836 121.017 36.4113H120.254C120.115 36.1613 119.994 35.8164 119.872 35.4542C119.612 34.7732 119.222 34.5662 118.675 34.5662H118.545V36.4113H117.817V34.5662H117.678C117.088 34.5662 116.733 34.7818 116.472 35.4629C116.334 35.825 116.221 36.1526 116.073 36.4113H115.336C115.51 36.0751 115.648 35.6353 115.796 35.2473C116.056 34.5749 116.429 34.2042 117.062 34.1352L115.397 32.2384H116.273Z" fill="black"/>
<path d="M124.113 36.4112L124.053 35.8853H124.026C123.792 36.2129 123.341 36.5061 122.743 36.5061C121.893 36.5061 121.459 35.9112 121.459 35.3077C121.459 34.299 122.361 33.7472 123.983 33.7558V33.6695C123.983 33.3247 123.888 32.7039 123.029 32.7039C122.639 32.7039 122.231 32.8246 121.936 33.0143L121.763 32.5142C122.11 32.2901 122.613 32.1435 123.142 32.1435C124.425 32.1435 124.738 33.0143 124.738 33.8506V35.4111C124.738 35.7732 124.755 36.1267 124.807 36.4112H124.113ZM124.001 34.2817C123.168 34.2645 122.223 34.411 122.223 35.2214C122.223 35.7129 122.552 35.9457 122.942 35.9457C123.489 35.9457 123.836 35.6008 123.957 35.2473C123.983 35.1697 124.001 35.0836 124.001 35.0059V34.2817Z" fill="black"/>
<path d="M132.692 32.2384V32.8419H131.383V36.4113H130.628V32.8419H129.318V32.2384H132.692Z" fill="black"/>
<path d="M133.82 32.2384L134.739 34.7042C134.834 34.9801 134.938 35.3077 135.008 35.5577H135.025C135.103 35.3077 135.19 34.9887 135.294 34.687L136.127 32.2384H136.933L135.788 35.2129C135.242 36.644 134.869 37.3768 134.349 37.8252C133.976 38.1528 133.603 38.2822 133.412 38.3166L133.221 37.6786C133.412 37.6182 133.664 37.4976 133.889 37.3079C134.097 37.1441 134.357 36.8509 134.531 36.463C134.566 36.3854 134.592 36.325 134.592 36.2819C134.592 36.2388 134.574 36.1785 134.54 36.0836L132.987 32.2384H133.82Z" fill="black"/>
<path d="M137.627 33.6006C137.627 33.066 137.61 32.635 137.592 32.2384H138.277L138.312 32.954H138.329C138.642 32.4453 139.136 32.1435 139.821 32.1435C140.836 32.1435 141.599 32.997 141.599 34.2644C141.599 35.7646 140.68 36.506 139.691 36.506C139.136 36.506 138.65 36.2646 138.399 35.8508H138.381V38.1183H137.627V33.6006H137.627ZM138.382 34.7128C138.382 34.8248 138.399 34.9283 138.416 35.0231C138.555 35.549 139.015 35.9111 139.561 35.9111C140.368 35.9111 140.836 35.2559 140.836 34.2989C140.836 33.4626 140.394 32.747 139.587 32.747C139.067 32.747 138.581 33.1177 138.434 33.6868C138.408 33.7816 138.382 33.8937 138.382 33.9971V34.7128Z" fill="black"/>
<path d="M145.736 30.8245C145.52 30.9021 145.138 30.971 144.86 31.0141C144.184 31.1175 143.69 31.3417 143.369 31.7987C143.1 32.1781 142.944 32.7385 142.909 33.1781H142.935C143.204 32.5746 143.794 32.2384 144.392 32.2384C145.424 32.2384 146.179 32.9712 146.179 34.2989C146.179 35.6612 145.467 36.5061 144.236 36.5061C142.762 36.5061 142.276 35.1008 142.276 33.7127C142.276 32.7643 142.475 31.9883 142.926 31.4021C143.334 30.8245 143.915 30.5572 144.73 30.4193C145.069 30.3675 145.485 30.2986 145.771 30.1951L145.736 30.8245ZM144.236 32.7988C143.785 32.7988 143.464 33.0316 143.291 33.3678C143.152 33.6178 143.082 33.9196 143.082 34.2558C143.082 34.9456 143.421 35.937 144.253 35.937C145.095 35.937 145.407 35.1266 145.407 34.3593C145.407 33.6782 145.138 32.7988 144.236 32.7988Z" fill="black"/>
<path d="M150.94 34.2904C150.94 35.8336 149.865 36.5061 148.85 36.5061C147.714 36.5061 146.838 35.6784 146.838 34.3593C146.838 32.9626 147.757 32.1436 148.919 32.1436C150.125 32.1435 150.94 33.0143 150.94 34.2904ZM147.61 34.3334C147.61 35.2473 148.139 35.937 148.885 35.937C149.613 35.937 150.16 35.2559 150.16 34.3162C150.16 33.6092 149.804 32.7126 148.902 32.7126C148 32.7126 147.61 33.5402 147.61 34.3334Z" fill="black"/>
<path d="M152.658 32.2384V34.0489H152.84L154.418 32.2384H155.346L153.516 34.1265C154.193 34.1955 154.601 34.6438 154.93 35.3939C155.043 35.6698 155.19 36.075 155.381 36.4112H154.583C154.471 36.2302 154.323 35.9025 154.193 35.5577C153.907 34.8852 153.516 34.5748 152.805 34.5748H152.658V36.4112H151.903V32.2384H152.658Z" fill="black"/>
<path d="M159.805 34.2904C159.805 35.8336 158.729 36.5061 157.714 36.5061C156.578 36.5061 155.702 35.6784 155.702 34.3593C155.702 32.9626 156.622 32.1436 157.784 32.1436C158.989 32.1435 159.805 33.0143 159.805 34.2904ZM156.474 34.3334C156.474 35.2473 157.003 35.937 157.749 35.937C158.478 35.937 159.024 35.2559 159.024 34.3162C159.024 33.6092 158.668 32.7126 157.766 32.7126C156.864 32.7126 156.474 33.5402 156.474 34.3334Z" fill="black"/>
<path d="M160.81 32.2384H161.747L162.51 34.3421C162.614 34.6524 162.797 35.1612 162.892 35.4888H162.909C163.005 35.1784 163.239 34.5145 163.404 34.0576L164.08 32.2385H165.025L165.32 36.4113H164.592L164.496 34.4197C164.47 33.9714 164.436 33.4368 164.418 32.9282H164.392C164.28 33.3075 164.167 33.6437 163.933 34.2818L163.126 36.3855H162.571L161.825 34.3249C161.695 33.9283 161.513 33.3247 161.409 32.9368H161.374C161.357 33.4283 161.331 33.9801 161.305 34.437L161.201 36.4113H160.498L160.81 32.2384Z" fill="black"/>
<path d="M169.761 32.2384V36.4112H168.997V32.8419H167.046V36.4112H166.292V32.2384H169.761Z" fill="black"/>
<path d="M171.001 33.6006C171.001 33.066 170.984 32.635 170.966 32.2384H171.651L171.686 32.954H171.704C172.016 32.4453 172.51 32.1435 173.195 32.1435C174.21 32.1435 174.973 32.997 174.973 34.2644C174.973 35.7646 174.054 36.506 173.065 36.506C172.51 36.506 172.024 36.2646 171.773 35.8508H171.756V38.1183H171.001V33.6006H171.001ZM171.756 34.7128C171.756 34.8248 171.773 34.9283 171.79 35.0231C171.929 35.549 172.389 35.9111 172.935 35.9111C173.742 35.9111 174.21 35.2559 174.21 34.2989C174.21 33.4626 173.768 32.747 172.961 32.747C172.441 32.747 171.955 33.1177 171.808 33.6868C171.782 33.7816 171.756 33.8937 171.756 33.9971V34.7128Z" fill="black"/>
<path d="M176.361 34.4627C176.378 35.4887 177.037 35.9112 177.801 35.9112C178.347 35.9112 178.676 35.8164 178.963 35.6956L179.093 36.2388C178.824 36.3595 178.364 36.4975 177.696 36.4975C176.404 36.4975 175.632 35.6526 175.632 34.3938C175.632 33.135 176.378 32.1435 177.601 32.1435C178.971 32.1435 179.336 33.3419 179.336 34.1092C179.336 34.2644 179.318 34.3851 179.31 34.4627H176.361V34.4627ZM178.598 33.9196C178.607 33.4368 178.399 32.6867 177.54 32.6867C176.768 32.6867 176.43 33.3937 176.37 33.9196H178.598Z" fill="black"/>
<path d="M183.273 36.256C183.074 36.3594 182.631 36.4974 182.068 36.4974C180.802 36.4974 179.978 35.6439 179.978 34.3679C179.978 33.0833 180.862 32.1522 182.232 32.1522C182.684 32.1522 183.082 32.2642 183.291 32.3677L183.117 32.954C182.935 32.8506 182.649 32.7557 182.232 32.7557C181.27 32.7557 180.749 33.4626 180.749 34.3334C180.749 35.299 181.374 35.8939 182.206 35.8939C182.64 35.8939 182.926 35.7818 183.143 35.687L183.273 36.256Z" fill="black"/>
<path d="M187.107 36.256C186.908 36.3594 186.465 36.4974 185.902 36.4974C184.635 36.4974 183.812 35.6439 183.812 34.3679C183.812 33.0833 184.696 32.1522 186.066 32.1522C186.518 32.1522 186.916 32.2642 187.125 32.3677L186.951 32.954C186.769 32.8506 186.483 32.7557 186.066 32.7557C185.104 32.7557 184.583 33.4626 184.583 34.3334C184.583 35.299 185.208 35.8939 186.04 35.8939C186.474 35.8939 186.76 35.7818 186.977 35.687L187.107 36.256Z" fill="black"/>
<path d="M191.747 34.2904C191.747 35.8336 190.671 36.5061 189.657 36.5061C188.52 36.5061 187.645 35.6784 187.645 34.3593C187.645 32.9626 188.564 32.1436 189.726 32.1436C190.932 32.1435 191.747 33.0143 191.747 34.2904ZM188.416 34.3334C188.416 35.2473 188.945 35.937 189.691 35.937C190.42 35.937 190.966 35.2559 190.966 34.3162C190.966 33.6092 190.611 32.7126 189.709 32.7126C188.807 32.7126 188.416 33.5402 188.416 34.3334Z" fill="black"/>
<path d="M192.71 33.6006C192.71 33.066 192.693 32.635 192.675 32.2384H193.36L193.395 32.954H193.412C193.725 32.4453 194.219 32.1435 194.904 32.1435C195.919 32.1435 196.682 32.997 196.682 34.2644C196.682 35.7646 195.763 36.506 194.774 36.506C194.219 36.506 193.733 36.2646 193.482 35.8508H193.464V38.1183H192.71V33.6006H192.71ZM193.465 34.7128C193.465 34.8248 193.482 34.9283 193.499 35.0231C193.638 35.549 194.098 35.9111 194.644 35.9111C195.451 35.9111 195.919 35.2559 195.919 34.2989C195.919 33.4626 195.477 32.747 194.67 32.747C194.15 32.747 193.664 33.1177 193.517 33.6868C193.491 33.7816 193.465 33.8937 193.465 33.9971V34.7128Z" fill="black"/>
<path d="M201.444 34.2904C201.444 35.8336 200.368 36.5061 199.353 36.5061C198.217 36.5061 197.341 35.6784 197.341 34.3593C197.341 32.9626 198.261 32.1436 199.423 32.1436C200.628 32.1435 201.444 33.0143 201.444 34.2904ZM198.113 34.3334C198.113 35.2473 198.642 35.937 199.388 35.937C200.117 35.937 200.663 35.2559 200.663 34.3162C200.663 33.6092 200.307 32.7126 199.405 32.7126C198.503 32.7126 198.113 33.5402 198.113 34.3334Z" fill="black"/>
<path d="M202.389 32.2901C202.684 32.2384 203.23 32.1953 203.724 32.1953C204.427 32.1953 205.589 32.3074 205.589 33.2385C205.589 33.7558 205.19 34.0748 204.713 34.1783V34.1955C205.329 34.2817 205.78 34.6266 205.78 35.2301C205.78 36.325 204.392 36.4629 203.568 36.4629C203.1 36.4629 202.614 36.4284 202.389 36.4112V32.2901ZM203.109 35.9112C203.325 35.937 203.482 35.9457 203.724 35.9457C204.236 35.9457 204.999 35.825 204.999 35.2214C204.999 34.6179 204.392 34.4886 203.664 34.4886H203.109V35.9112ZM203.117 33.9885H203.69C204.253 33.9885 204.835 33.8247 204.835 33.3333C204.835 32.9195 204.47 32.7211 203.707 32.7211C203.455 32.7211 203.299 32.7384 203.117 32.7557V33.9885Z" fill="black"/>
<path d="M206.249 37.4717C206.439 36.963 206.674 36.0405 206.769 35.4111L207.619 35.3248C207.419 36.0577 207.038 37.0147 206.795 37.4199L206.249 37.4717Z" fill="black"/>
<path d="M60.4875 41.8506V46.0235H59.7243V42.4541H57.7728V46.0235H57.0183V41.8506H60.4875Z" fill="black"/>
<path d="M61.7278 43.2128C61.7278 42.6783 61.7104 42.2472 61.6931 41.8506H62.3783L62.4129 42.5662H62.4303C62.7425 42.0575 63.2368 41.7557 63.922 41.7557C64.9367 41.7557 65.6999 42.6092 65.6999 43.8766C65.6999 45.3768 64.7805 46.1182 63.7918 46.1182C63.2368 46.1182 62.7511 45.8768 62.4996 45.463H62.4822V47.7305H61.7277V43.2128H61.7278ZM62.4824 44.325C62.4824 44.4371 62.4997 44.5405 62.517 44.6354C62.6558 45.1613 63.1154 45.5234 63.6619 45.5234C64.4684 45.5234 64.9368 44.8682 64.9368 43.9111C64.9368 43.0749 64.4945 42.3592 63.6879 42.3592C63.1675 42.3592 62.6818 42.73 62.5344 43.299C62.5084 43.3938 62.4824 43.5059 62.4824 43.6094V44.325Z" fill="black"/>
<path d="M70.4615 43.9026C70.4615 45.4459 69.386 46.1183 68.3713 46.1183C67.2351 46.1183 66.3591 45.2907 66.3591 43.9716C66.3591 42.5749 67.2785 41.7558 68.4406 41.7558C69.6462 41.7558 70.4615 42.6266 70.4615 43.9026ZM67.131 43.9457C67.131 44.8596 67.6601 45.5493 68.406 45.5493C69.1345 45.5493 69.6809 44.8682 69.6809 43.9284C69.6809 43.2215 69.3253 42.3248 68.4233 42.3248C67.5213 42.3248 67.131 43.1525 67.131 43.9457Z" fill="black"/>
<path d="M74.6161 41.8506V45.4545L75.0498 45.463L75.0064 47.3512H74.408L74.3733 46.0235H71.4678L71.4331 47.3512H70.8347L70.8 45.463L71.1557 45.4545C71.3378 45.1872 71.4766 44.9027 71.572 44.6009C71.7368 44.0836 71.8148 43.5232 71.8148 42.9369V41.8506H74.6161ZM72.4912 43.118C72.4912 43.6698 72.4132 44.2043 72.2744 44.6699C72.1877 44.9544 72.0662 45.2131 71.9362 45.4459H73.8702V42.4283H72.4912V43.118Z" fill="black"/>
<path d="M78.2848 46.0235L78.2242 45.4975H78.1981C77.9639 45.8252 77.513 46.1183 76.9145 46.1183C76.0646 46.1183 75.6309 45.5234 75.6309 44.9199C75.6309 43.9112 76.5329 43.3594 78.1547 43.368V43.2818C78.1547 42.9369 78.0593 42.3162 77.2007 42.3162C76.8104 42.3162 76.4028 42.4368 76.1079 42.6265L75.9344 42.1265C76.2813 41.9023 76.7843 41.7557 77.3134 41.7557C78.597 41.7557 78.9092 42.6265 78.9092 43.4628V45.0233C78.9092 45.3854 78.9266 45.7389 78.9786 46.0235H78.2848ZM78.1722 43.8939C77.3395 43.8767 76.3942 44.0232 76.3942 44.8337C76.3942 45.3251 76.7238 45.5579 77.1141 45.5579C77.6604 45.5579 78.0074 45.2131 78.1288 44.8596C78.1548 44.7819 78.1722 44.6958 78.1722 44.6181V43.8939Z" fill="black"/>
<path d="M80.4963 41.8506L81.8839 43.6698H82.04V41.8506H82.7686V43.6698H82.916L84.3037 41.8506H85.1797L83.5231 43.7474C84.1563 43.8164 84.5292 44.1871 84.7807 44.851C84.9282 45.2562 85.0669 45.6958 85.2404 46.0235H84.4771C84.3384 45.7735 84.2169 45.4286 84.0956 45.0665C83.8354 44.3854 83.4451 44.1785 82.8987 44.1785H82.7686V46.0235H82.04V44.1785H81.9013C81.3115 44.1785 80.9559 44.3941 80.6957 45.0751C80.557 45.4372 80.4442 45.7649 80.2968 46.0235H79.5596C79.7331 45.6873 79.8718 45.2476 80.0192 44.8596C80.2794 44.1871 80.6524 43.8164 81.2855 43.7474L79.6203 41.8506H80.4963Z" fill="black"/>
<path d="M88.3368 46.0235L88.2761 45.4975H88.2501C88.0159 45.8252 87.565 46.1183 86.9665 46.1183C86.1166 46.1183 85.6829 45.5234 85.6829 44.9199C85.6829 43.9112 86.5849 43.3594 88.2067 43.368V43.2818C88.2067 42.9369 88.1113 42.3162 87.2527 42.3162C86.8624 42.3162 86.4548 42.4368 86.1599 42.6265L85.9864 42.1265C86.3333 41.9023 86.8363 41.7557 87.3654 41.7557C88.649 41.7557 88.9612 42.6265 88.9612 43.4628V45.0233C88.9612 45.3854 88.9786 45.7389 89.0306 46.0235H88.3368ZM88.2241 43.8939C87.3915 43.8767 86.4461 44.0232 86.4461 44.8337C86.4461 45.3251 86.7757 45.5579 87.166 45.5579C87.7124 45.5579 88.0593 45.2131 88.1807 44.8596C88.2068 44.7819 88.2241 44.6958 88.2241 44.6181V43.8939Z" fill="black"/>
<path d="M92.2048 43.644H94.3211C94.2517 42.9284 93.8093 42.3421 92.8726 42.3421C92.4303 42.3421 92.0921 42.4714 91.8666 42.5749L91.7018 42.0835C92.0661 41.8765 92.5517 41.7558 92.9941 41.7558C93.6012 41.7558 94.1476 41.9628 94.5205 42.3508C94.8761 42.7215 95.0929 43.2733 95.0929 43.9544C95.0929 45.17 94.2863 46.1183 92.864 46.1183C92.413 46.1183 91.9793 46.0063 91.6411 45.8339L91.7885 45.2907C91.988 45.377 92.3436 45.5149 92.838 45.5149C93.6792 45.5149 94.243 44.989 94.3124 44.1613H92.2048V43.644Z" fill="black"/>
<path d="M99.2384 41.8506V46.0235H98.4839V42.4455H97.0442V43.5319C97.0442 44.7044 96.9314 45.4889 96.3851 45.8424C96.1769 46.0062 95.9427 46.1011 95.5524 46.1011L95.4744 45.5062C95.6218 45.4803 95.7866 45.4199 95.8907 45.3337C96.2809 45.0493 96.3243 44.463 96.3243 43.5319V41.8506H99.2384Z" fill="black"/>
<path d="M100.913 44.075C100.93 45.1009 101.589 45.5234 102.353 45.5234C102.899 45.5234 103.229 45.4286 103.515 45.3079L103.645 45.851C103.376 45.9717 102.916 46.1097 102.249 46.1097C100.956 46.1097 100.184 45.2648 100.184 44.006C100.184 42.7472 100.93 41.7557 102.153 41.7557C103.523 41.7557 103.888 42.9541 103.888 43.7215C103.888 43.8767 103.87 43.9974 103.862 44.0749H100.913V44.075ZM103.15 43.5318C103.159 43.049 102.951 42.299 102.092 42.299C101.32 42.299 100.982 43.0059 100.921 43.5318H103.15Z" fill="black"/>
<path d="M105.588 41.8506V43.6612H105.77L107.348 41.8506H108.276L106.446 43.7388C107.123 43.8078 107.53 44.2561 107.86 45.0062C107.973 45.2821 108.12 45.6872 108.311 46.0235H107.513C107.4 45.8424 107.253 45.5148 107.123 45.1699C106.836 44.4975 106.446 44.1871 105.735 44.1871H105.588V46.0235H104.833V41.8506H105.588Z" fill="black"/>
<path d="M111.97 41.8506V42.4542H110.661V46.0235H109.906V42.4542H108.597V41.8506H111.97Z" fill="black"/>
<path d="M112.639 43.2128C112.639 42.6783 112.621 42.2472 112.604 41.8506H113.289L113.324 42.5662H113.341C113.653 42.0575 114.148 41.7557 114.833 41.7557C115.848 41.7557 116.611 42.6092 116.611 43.8766C116.611 45.3768 115.691 46.1182 114.703 46.1182C114.148 46.1182 113.662 45.8768 113.41 45.463H113.393V47.7305H112.639V43.2128H112.639ZM113.393 44.325C113.393 44.4371 113.411 44.5405 113.428 44.6354C113.567 45.1613 114.026 45.5234 114.573 45.5234C115.379 45.5234 115.848 44.8682 115.848 43.9111C115.848 43.0749 115.405 42.3592 114.599 42.3592C114.078 42.3592 113.593 42.73 113.445 43.299C113.419 43.3938 113.393 43.5059 113.393 43.6094V44.325Z" fill="black"/>
<path d="M121.372 43.9026C121.372 45.4459 120.297 46.1183 119.282 46.1183C118.146 46.1183 117.27 45.2907 117.27 43.9716C117.27 42.5749 118.189 41.7558 119.351 41.7558C120.557 41.7558 121.372 42.6266 121.372 43.9026ZM118.042 43.9457C118.042 44.8596 118.571 45.5493 119.317 45.5493C120.045 45.5493 120.592 44.8682 120.592 43.9284C120.592 43.2215 120.236 42.3248 119.334 42.3248C118.432 42.3248 118.042 43.1525 118.042 43.9457Z" fill="black"/>
<path d="M123.072 41.8506V43.5319H125.067V41.8506H125.822V46.0235H125.067V44.1353H123.072V46.0235H122.318V41.8506H123.072Z" fill="black"/>
<path d="M127.808 41.8506V43.5319H129.803V41.8506H130.557V46.0235H129.803V44.1353H127.808V46.0235H127.053V41.8506H127.808Z" fill="black"/>
<path d="M132.543 41.8506V43.2732C132.708 43.2387 132.951 43.2215 133.229 43.2215C134.131 43.2215 135.041 43.5922 135.041 44.6181C135.041 45.0578 134.876 45.3596 134.608 45.5838C134.148 45.9717 133.471 46.0665 132.916 46.0665C132.491 46.0665 132.101 46.0406 131.789 46.0062V41.8506H132.543V41.8506ZM132.543 45.4975C132.691 45.5148 132.856 45.5321 133.072 45.5321C133.654 45.5321 134.287 45.2906 134.287 44.644C134.287 43.9716 133.68 43.7646 133.107 43.7646C132.89 43.7646 132.7 43.7819 132.543 43.8077V45.4975H132.543ZM136.325 41.8506V46.0235H135.57V41.8506H136.325Z" fill="black"/>
<path d="M137.93 41.8506L138.528 42.7473C138.684 42.9801 138.814 43.1956 138.953 43.4284H138.979C139.118 43.1783 139.257 42.9628 139.395 42.7387L139.985 41.8506H140.809L139.378 43.8681L140.852 46.0235H139.985L139.369 45.0837C139.205 44.8423 139.066 44.6096 138.918 44.3595H138.901C138.762 44.6096 138.615 44.8337 138.459 45.0837L137.852 46.0235H137.01L138.502 43.894L137.08 41.8506H137.93Z" fill="black"/>
<path d="M145.753 46.0235L145.692 45.4975H145.666C145.432 45.8252 144.981 46.1183 144.382 46.1183C143.532 46.1183 143.099 45.5234 143.099 44.9199C143.099 43.9112 144.001 43.3594 145.622 43.368V43.2818C145.622 42.9369 145.527 42.3162 144.668 42.3162C144.278 42.3162 143.87 42.4368 143.576 42.6265L143.402 42.1265C143.749 41.9023 144.252 41.7557 144.781 41.7557C146.065 41.7557 146.377 42.6265 146.377 43.4628V45.0233C146.377 45.3854 146.394 45.7389 146.446 46.0235H145.753ZM145.64 43.8939C144.807 43.8767 143.862 44.0232 143.862 44.8337C143.862 45.3251 144.191 45.5579 144.582 45.5579C145.128 45.5579 145.475 45.2131 145.596 44.8596C145.622 44.7819 145.64 44.6958 145.64 44.6181V43.8939Z" fill="black"/>
<path d="M148.363 41.8506V43.6612H148.545L150.124 41.8506H151.052L149.222 43.7388C149.898 43.8078 150.306 44.2561 150.635 45.0062C150.748 45.2821 150.895 45.6872 151.086 46.0235H150.288C150.176 45.8424 150.028 45.5148 149.898 45.1699C149.612 44.4975 149.222 44.1871 148.51 44.1871H148.363V46.0235H147.608V41.8506H148.363Z" fill="black"/>
<path d="M154.746 41.8506V42.4542H153.436V46.0235H152.682V42.4542H151.372V41.8506H154.746Z" fill="black"/>
<path d="M155.874 41.8506L156.793 44.3164C156.888 44.5923 156.992 44.92 157.062 45.1699H157.079C157.157 44.9199 157.244 44.6009 157.348 44.2992L158.181 41.8506H158.987L157.842 44.8251C157.296 46.2563 156.923 46.9891 156.403 47.4374C156.03 47.7651 155.657 47.8944 155.466 47.9288L155.275 47.2909C155.466 47.2305 155.718 47.1098 155.943 46.9201C156.151 46.7563 156.411 46.4631 156.585 46.0752C156.62 45.9976 156.646 45.9373 156.646 45.8942C156.646 45.8511 156.628 45.7907 156.593 45.6958L155.041 41.8506H155.874Z" fill="black"/>
<path d="M161.945 46.0235L161.884 45.4975H161.858C161.624 45.8252 161.173 46.1183 160.574 46.1183C159.724 46.1183 159.291 45.5234 159.291 44.9199C159.291 43.9112 160.192 43.3594 161.814 43.368V43.2818C161.814 42.9369 161.719 42.3162 160.86 42.3162C160.47 42.3162 160.062 42.4368 159.767 42.6265L159.594 42.1265C159.941 41.9023 160.444 41.7557 160.973 41.7557C162.257 41.7557 162.569 42.6265 162.569 43.4628V45.0233C162.569 45.3854 162.586 45.7389 162.638 46.0235H161.945ZM161.832 43.8939C160.999 43.8767 160.054 44.0232 160.054 44.8337C160.054 45.3251 160.383 45.5579 160.774 45.5579C161.32 45.5579 161.667 45.2131 161.788 44.8596C161.814 44.7819 161.832 44.6958 161.832 44.6181V43.8939Z" fill="black"/>
<path d="M166.576 41.8506V42.4542H165.267V46.0235H164.512V42.4542H163.203V41.8506H166.576Z" fill="black"/>
<path d="M170.93 43.9026C170.93 45.4459 169.855 46.1183 168.84 46.1183C167.704 46.1183 166.828 45.2907 166.828 43.9716C166.828 42.5749 167.747 41.7558 168.91 41.7558C170.115 41.7558 170.93 42.6266 170.93 43.9026ZM167.6 43.9457C167.6 44.8596 168.129 45.5493 168.875 45.5493C169.603 45.5493 170.15 44.8682 170.15 43.9284C170.15 43.2215 169.794 42.3248 168.892 42.3248C167.99 42.3248 167.6 43.1525 167.6 43.9457Z" fill="black"/>
<path d="M171.893 43.2128C171.893 42.6783 171.876 42.2472 171.858 41.8506H172.544L172.578 42.5662H172.596C172.908 42.0575 173.402 41.7557 174.087 41.7557C175.102 41.7557 175.865 42.6092 175.865 43.8766C175.865 45.3768 174.946 46.1182 173.957 46.1182C173.402 46.1182 172.916 45.8768 172.665 45.463H172.648V47.7305H171.893V43.2128H171.893ZM172.648 44.325C172.648 44.4371 172.665 44.5405 172.682 44.6354C172.821 45.1613 173.281 45.5234 173.827 45.5234C174.634 45.5234 175.102 44.8682 175.102 43.9111C175.102 43.0749 174.66 42.3592 173.853 42.3592C173.333 42.3592 172.847 42.73 172.7 43.299C172.674 43.3938 172.648 43.5059 172.648 43.6094V44.325Z" fill="black"/>
<path d="M180.627 43.9026C180.627 45.4459 179.551 46.1183 178.537 46.1183C177.4 46.1183 176.524 45.2907 176.524 43.9716C176.524 42.5749 177.444 41.7558 178.606 41.7558C179.811 41.7558 180.627 42.6266 180.627 43.9026ZM177.296 43.9457C177.296 44.8596 177.825 45.5493 178.571 45.5493C179.3 45.5493 179.846 44.8682 179.846 43.9284C179.846 43.2215 179.491 42.3248 178.589 42.3248C177.687 42.3248 177.296 43.1525 177.296 43.9457Z" fill="black"/>
<path d="M181.572 41.9024C181.867 41.8507 182.414 41.8076 182.908 41.8076C183.61 41.8076 184.773 41.9196 184.773 42.8508C184.773 43.3681 184.374 43.6871 183.897 43.7905V43.8078C184.512 43.894 184.963 44.2389 184.963 44.8424C184.963 45.9373 183.576 46.0752 182.752 46.0752C182.283 46.0752 181.798 46.0407 181.572 46.0235V41.9024ZM182.292 45.5234C182.509 45.5493 182.665 45.558 182.908 45.558C183.42 45.558 184.183 45.4372 184.183 44.8337C184.183 44.2302 183.576 44.1009 182.847 44.1009H182.292V45.5234ZM182.301 43.6008H182.873C183.437 43.6008 184.018 43.437 184.018 42.9456C184.018 42.5317 183.654 42.3334 182.891 42.3334C182.639 42.3334 182.483 42.3507 182.301 42.3679V43.6008Z" fill="black"/>
<defs>
<linearGradient id="paint0_linear" x1="21.9615" y1="4.27104" x2="15.9515" y2="20.6069" gradientUnits="userSpaceOnUse">
<stop stop-color="#FFA100"/>
<stop offset="1" stop-color="#B65D00"/>
</linearGradient>
</defs>
</svg>
